<svg width="28" height="28" viewBox="0 0 28 28" fill="none" xmlns="http://www.w3.org/2000/svg">
<mask id="mask0_52_712" style="mask-type:alpha" maskUnits="userSpaceOnUse" x="0" y="0" width="28" height="28">
<rect width="28" height="28" fill="#D9D9D9"/>
</mask>
<g mask="url(#mask0_52_712)">
<path d="M6.82498 19.95C7.81665 19.1916 8.92498 18.5937 10.15 18.1562C11.375 17.7187 12.6583 17.5 14 17.5C15.3416 17.5 16.625 17.7187 17.85 18.1562C19.075 18.5937 20.1833 19.1916 21.175 19.95C21.8555 19.1528 22.3854 18.2486 22.7646 17.2375C23.1437 16.2264 23.3333 15.1472 23.3333 14C23.3333 11.4139 22.4243 9.21179 20.6062 7.39373C18.7882 5.57567 16.5861 4.66665 14 4.66665C11.4139 4.66665 9.21179 5.57567 7.39373 7.39373C5.57567 9.21179 4.66665 11.4139 4.66665 14C4.66665 15.1472 4.85623 16.2264 5.2354 17.2375C5.61456 18.2486 6.14442 19.1528 6.82498 19.95ZM14 15.1666C12.8528 15.1666 11.8854 14.7729 11.0979 13.9854C10.3104 13.1979 9.91665 12.2305 9.91665 11.0833C9.91665 9.93609 10.3104 8.96873 11.0979 8.18123C11.8854 7.39373 12.8528 6.99998 14 6.99998C15.1472 6.99998 16.1146 7.39373 16.9021 8.18123C17.6896 8.96873 18.0833 9.93609 18.0833 11.0833C18.0833 12.2305 17.6896 13.1979 16.9021 13.9854C16.1146 14.7729 15.1472 15.1666 14 15.1666ZM14 25.6666C12.3861 25.6666 10.8694 25.3604 9.44998 24.7479C8.03054 24.1354 6.79581 23.3041 5.74581 22.2541C4.69581 21.2041 3.86456 19.9694 3.25206 18.55C2.63956 17.1305 2.33331 15.6139 2.33331 14C2.33331 12.3861 2.63956 10.8694 3.25206 9.44998C3.86456 8.03054 4.69581 6.79581 5.74581 5.74581C6.79581 4.69581 8.03054 3.86456 9.44998 3.25206C10.8694 2.63956 12.3861 2.33331 14 2.33331C15.6139 2.33331 17.1305 2.63956 18.55 3.25206C19.9694 3.86456 21.2041 4.69581 22.2541 5.74581C23.3041 6.79581 24.1354 8.03054 24.7479 9.44998C25.3604 10.8694 25.6666 12.3861 25.6666 14C25.6666 15.6139 25.3604 17.1305 24.7479 18.55C24.1354 19.9694 23.3041 21.2041 22.2541 22.2541C21.2041 23.3041 19.9694 24.1354 18.55 24.7479C17.1305 25.3604 15.6139 25.6666 14 25.6666ZM14 23.3333C15.0305 23.3333 16.0028 23.1826 16.9166 22.8812C17.8305 22.5798 18.6666 22.1472 19.425 21.5833C18.6666 21.0194 17.8305 20.5868 16.9166 20.2854C16.0028 19.984 15.0305 19.8333 14 19.8333C12.9694 19.8333 11.9972 19.984 11.0833 20.2854C10.1694 20.5868 9.33331 21.0194 8.57498 21.5833C9.33331 22.1472 10.1694 22.5798 11.0833 22.8812C11.9972 23.1826 12.9694 23.3333 14 23.3333ZM14 12.8333C14.5055 12.8333 14.9236 12.668 15.2541 12.3375C15.5847 12.0069 15.75 11.5889 15.75 11.0833C15.75 10.5778 15.5847 10.1597 15.2541 9.82915C14.9236 9.49859 14.5055 9.33331 14 9.33331C13.4944 9.33331 13.0764 9.49859 12.7458 9.82915C12.4153 10.1597 12.25 10.5778 12.25 11.0833C12.25 11.5889 12.4153 12.0069 12.7458 12.3375C13.0764 12.668 13.4944 12.8333 14 12.8333Z" fill="#111111"/>
</g>
</svg>
