<svg width="28" height="28" viewBox="0 0 28 28" fill="none" xmlns="http://www.w3.org/2000/svg">
<g id="arrow_forward">
<mask id="mask0_52_1617" style="mask-type:alpha" maskUnits="userSpaceOnUse" x="0" y="0" width="28" height="28">
<rect id="Bounding box" x="28" y="28" width="28" height="28" transform="rotate(-180 28 28)" fill="#D9D9D9"/>
</mask>
<g mask="url(#mask0_52_1617)">
<path id="arrow_forward_2" d="M8.60183 13.125L21.875 13.125C22.1233 13.125 22.3312 13.2088 22.4986 13.3764C22.6662 13.5438 22.75 13.7517 22.75 14C22.75 14.2483 22.6662 14.4562 22.4986 14.6236C22.3312 14.7912 22.1233 14.875 21.875 14.875L8.60183 14.875L14.6326 20.9058C14.8061 21.0792 14.8917 21.2822 14.8896 21.5148C14.8872 21.7473 14.7957 21.9541 14.6148 22.1352C14.4338 22.3041 14.2289 22.3916 14 22.3977C13.7711 22.4037 13.5662 22.3162 13.3852 22.1352L5.98821 14.7382C5.87893 14.6289 5.80193 14.5137 5.75721 14.3926C5.71229 14.2714 5.68983 14.1406 5.68983 14C5.68983 13.8594 5.71229 13.7285 5.75721 13.6074C5.80193 13.4863 5.87893 13.3711 5.98821 13.2618L13.3852 5.86482C13.5468 5.70324 13.7468 5.6206 13.9854 5.61691C14.224 5.61321 14.4338 5.69585 14.6148 5.86482C14.7957 6.04585 14.8861 6.25371 14.8861 6.48841C14.8861 6.7233 14.7957 6.93125 14.6148 7.11228L8.60183 13.125Z" fill="#111111"/>
</g>
</g>
</svg>
