<svg width="12" height="12" viewBox="0 0 12 12" fill="none" xmlns="http://www.w3.org/2000/svg">
<mask id="mask0_52_2022" style="mask-type:alpha" maskUnits="userSpaceOnUse" x="0" y="0" width="12" height="12">
<rect width="12" height="12" fill="#D9D9D9"/>
</mask>
<g mask="url(#mask0_52_2022)">
<path d="M1.65387 7.75C1.41604 7.75 1.20596 7.65879 1.02362 7.47638C0.841208 7.29404 0.75 7.08396 0.75 6.84613V6.0385C0.75 5.98658 0.755458 5.9305 0.766375 5.87025C0.777292 5.81 0.793625 5.75387 0.815375 5.70187L2.24813 2.32113C2.31988 2.16088 2.44004 2.02562 2.60863 1.91537C2.77721 1.80512 2.95254 1.75 3.13463 1.75H7.18275C7.43208 1.75 7.64504 1.83829 7.82162 2.01488C7.99821 2.19154 8.0865 2.40454 8.0865 2.65387V7.376C8.0865 7.4965 8.06183 7.61233 8.0125 7.7235C7.96317 7.83475 7.89746 7.93142 7.81537 8.0135L5.17025 10.6414C5.07083 10.7355 4.95575 10.7935 4.825 10.8154C4.69425 10.8371 4.56896 10.8176 4.44913 10.7568C4.32921 10.6958 4.24267 10.6064 4.1895 10.4885C4.13625 10.3705 4.12567 10.2452 4.15775 10.1125L4.69625 7.75H1.65387ZM9.84613 1.75C10.0955 1.75 10.3085 1.83829 10.4851 2.01488C10.6617 2.19154 10.75 2.40454 10.75 2.65387V6.84613C10.75 7.09546 10.6617 7.30846 10.4851 7.48513C10.3085 7.66171 10.0955 7.75 9.84613 7.75H9.74037C9.49104 7.75 9.27804 7.66171 9.10137 7.48513C8.92479 7.30846 8.8365 7.09546 8.8365 6.84613V2.649C8.8365 2.39967 8.92479 2.1875 9.10137 2.0125C9.27804 1.8375 9.49104 1.75 9.74037 1.75H9.84613Z" fill="#A0A0A0"/>
</g>
</svg>
