<svg width="28" height="28" viewBox="0 0 28 28" fill="none" xmlns="http://www.w3.org/2000/svg">
<g id="draw">
<mask id="mask0_90_575" style="mask-type:alpha" maskUnits="userSpaceOnUse" x="0" y="0" width="28" height="28">
<rect id="Bounding box" width="28" height="28" fill="#D9D9D9"/>
</mask>
<g mask="url(#mask0_90_575)">
<path id="draw_2" d="M6.30459 23.9166C6.00378 23.9166 5.75285 23.816 5.55179 23.6148C5.35054 23.4137 5.24992 23.1628 5.24992 22.862V20.8518C5.24992 20.5706 5.30456 20.3004 5.41384 20.041C5.52292 19.7814 5.67322 19.5558 5.86475 19.3643L20.6432 4.60394C20.8242 4.42291 21.0232 4.29088 21.24 4.20786C21.457 4.12483 21.6739 4.08331 21.8907 4.08331C22.1195 4.08331 22.3413 4.12483 22.556 4.20786C22.7704 4.29088 22.9585 4.42291 23.12 4.60394L24.5626 6.04652C24.7437 6.2081 24.8757 6.39613 24.9587 6.61061C25.0417 6.82527 25.0833 7.04704 25.0833 7.2759C25.0833 7.4927 25.0417 7.70961 24.9587 7.92661C24.8757 8.14341 24.7437 8.34233 24.5626 8.52335L9.80225 23.3018C9.61072 23.4933 9.38517 23.6436 9.12559 23.7527C8.8662 23.862 8.59592 23.9166 8.31475 23.9166H6.30459ZM6.99992 22.1666H8.4425L20.3314 10.2958L19.6157 9.5509L18.8708 8.83515L6.99992 20.7241V22.1666ZM19.6157 9.5509L18.8708 8.83515L20.3314 10.2958L19.6157 9.5509ZM16.4905 23.9166C17.8545 23.9166 19.1191 23.5831 20.2842 22.9159C21.4493 22.2488 22.0318 21.3185 22.0318 20.125C22.0318 19.5177 21.8614 18.9781 21.5205 18.5062C21.1795 18.0343 20.7076 17.6151 20.1048 17.2486C19.8998 17.114 19.6811 17.0579 19.4485 17.0803C19.216 17.1028 19.0264 17.2046 18.8798 17.3856C18.7332 17.5665 18.6711 17.7822 18.6934 18.0329C18.716 18.2833 18.8297 18.4759 19.0347 18.6106C19.4191 18.8393 19.7231 19.0767 19.9467 19.3229C20.1703 19.5689 20.2821 19.8362 20.2821 20.125C20.2821 20.6768 19.903 21.1551 19.1446 21.5597C18.3863 21.9643 17.5016 22.1666 16.4905 22.1666C16.2422 22.1666 16.0342 22.2505 15.8666 22.4181C15.6992 22.5855 15.6155 22.7933 15.6155 23.0416C15.6155 23.29 15.6992 23.4978 15.8666 23.6652C16.0342 23.8328 16.2422 23.9166 16.4905 23.9166ZM11.0833 7.29165C11.0833 7.63115 10.8907 7.93895 10.5055 8.21506C10.1205 8.49098 9.30418 8.91088 8.05663 9.47477C6.55338 10.1328 5.51534 10.722 4.9425 11.2426C4.36967 11.7631 4.08325 12.3906 4.08325 13.125C4.08325 13.6082 4.2074 14.0311 4.45571 14.3937C4.70402 14.7564 5.01289 15.0686 5.38234 15.3306C5.57522 15.4846 5.7861 15.5451 6.01496 15.5123C6.24382 15.4792 6.43525 15.3662 6.58925 15.1734C6.74345 14.9805 6.80703 14.7677 6.78 14.5352C6.75317 14.3026 6.64321 14.1093 6.45013 13.9551C6.24674 13.8205 6.09313 13.684 5.98929 13.5456C5.88527 13.4073 5.83325 13.2671 5.83325 13.125C5.83325 12.8318 6.02886 12.5423 6.42009 12.2567C6.81111 11.971 7.58918 11.5777 8.75429 11.0766C10.3758 10.3826 11.461 9.75477 12.0099 9.19302C12.5588 8.63147 12.8333 7.99767 12.8333 7.29165C12.8333 6.3344 12.4298 5.56041 11.6228 4.96969C10.8159 4.37877 9.76103 4.08331 8.45825 4.08331C7.65811 4.08331 6.92224 4.22769 6.25063 4.51644C5.57902 4.80499 5.07715 5.15801 4.74504 5.57548C4.58365 5.76837 4.51677 5.98109 4.54438 6.21365C4.57199 6.4462 4.68234 6.63724 4.87542 6.78677C5.06831 6.94097 5.27918 7.00416 5.50804 6.97636C5.7369 6.94874 5.93203 6.85415 6.09342 6.69256C6.3882 6.39798 6.72702 6.18108 7.10988 6.04186C7.49274 5.90283 7.9422 5.83331 8.45825 5.83331C9.31536 5.83331 9.96714 5.97798 10.4136 6.26731C10.86 6.55684 11.0833 6.89829 11.0833 7.29165Z" fill="#1C1B1F"/>
</g>
</g>
</svg>
