<svg width="28" height="28" viewBox="0 0 28 28" fill="none" xmlns="http://www.w3.org/2000/svg">
<mask id="mask0_74_445" style="mask-type:alpha" maskUnits="userSpaceOnUse" x="0" y="0" width="28" height="28">
<rect width="28" height="28" fill="#D9D9D9"/>
</mask>
<g mask="url(#mask0_74_445)">
<path d="M8.16675 15.75V23.3333C8.16675 23.5813 8.08285 23.789 7.91504 23.9566C7.74723 24.1244 7.53937 24.2083 7.29146 24.2083C7.04335 24.2083 6.83558 24.1244 6.66816 23.9566C6.50055 23.789 6.41675 23.5813 6.41675 23.3333V6.30467C6.41675 6.0058 6.51786 5.75536 6.72008 5.55333C6.92211 5.35111 7.17255 5.25 7.47141 5.25H14.9894C15.2385 5.25 15.4608 5.32817 15.6565 5.4845C15.8519 5.64083 15.9751 5.84383 16.026 6.0935L16.3288 7.58333H21.6954C21.9943 7.58333 22.2447 7.68396 22.4467 7.88521C22.649 8.08646 22.7501 8.33583 22.7501 8.63333V17.0336C22.7501 17.3311 22.649 17.5804 22.4467 17.7815C22.2447 17.9827 21.9943 18.0833 21.6954 18.0833H16.5107C16.2617 18.0833 16.0393 18.0052 15.8437 17.8488C15.6483 17.6925 15.5251 17.4895 15.4742 17.2398L15.1714 15.75H8.16675ZM17.0917 16.3333H21.0001V9.33333H15.7477C15.4989 9.33333 15.2766 9.25517 15.081 9.09883C14.8854 8.9425 14.7621 8.7395 14.7112 8.48983L14.4084 7H8.16675V14H15.7524C16.0013 14 16.2236 14.0782 16.4192 14.2345C16.6148 14.3908 16.7381 14.5938 16.789 14.8435L17.0917 16.3333Z" fill="black"/>
</g>
</svg>
