<svg width="90" height="24" viewBox="0 0 90 24" fill="none" xmlns="http://www.w3.org/2000/svg">
<g clip-path="url(#clip0_52_451)">
<rect width="90" height="24" fill="white"/>
<path d="M2.51612 12.2671H19.7264V15.3725H6.74322V16.3993H19.5174V19.3044H6.74322V20.4313H20.0748V23.5868H2.51612V12.2671ZM15.569 11.641V0.020874H19.7264V3.90261H22.4206V7.65914H19.7264V11.641H15.569ZM10.4593 11.3155H6.04645C6.9058 8.81114 7.81161 6.35687 8.67096 3.85253H0.565155V0.296351H13.8503C12.7123 4.02783 11.5742 7.58401 10.4593 11.3155ZM39.6201 23.4616V0.020874H43.8008V23.4616H39.6201ZM30.3763 21.7837C25.94 21.7837 23.8033 19.3795 23.8033 15.5478V6.58227C23.8033 2.70053 25.94 0.346439 30.3763 0.346439C34.8123 0.346439 36.9027 2.70053 36.9027 6.58227V15.5478C36.9027 19.3795 34.7659 21.7837 30.3763 21.7837ZM32.8613 15.3976V7.50888C32.8613 5.65566 32.513 4.10296 30.3763 4.10296C28.2394 4.10296 27.891 5.65566 27.891 7.50888V14.5962C27.891 16.5746 28.2626 18.0271 30.3763 18.0271C32.0485 18.0271 32.8613 17.0004 32.8613 15.3976ZM58.3524 11.7162V7.75931H62.4169V0.020874H66.5976V23.4616H62.4169V11.7162H58.3524ZM51.0595 8.88627V0.546788H55.2169V8.88627L60.7447 21.6334H56.4479L53.1266 13.4943L49.8285 21.6334H45.5318L51.0595 8.88627ZM85.3763 23.4616V0.020874H89.557V23.4616H85.3763ZM79.5002 21.5583H75.0176C76.0628 15.8734 77.1312 10.489 78.1763 4.77914H69.8615V0.947483H83.077C81.8924 7.93461 80.6847 14.5711 79.5002 21.5583Z" fill="#111111"/>
</g>
<defs>
<clipPath id="clip0_52_451">
<rect width="90" height="24" fill="white"/>
</clipPath>
</defs>
</svg>
