<svg width="12" height="12" viewBox="0 0 12 12" fill="none" xmlns="http://www.w3.org/2000/svg">
<mask id="mask0_52_2017" style="mask-type:alpha" maskUnits="userSpaceOnUse" x="0" y="0" width="12" height="12">
<rect width="12" height="12" fill="#D9D9D9"/>
</mask>
<g mask="url(#mask0_52_2017)">
<path d="M10.3461 4.24999C10.584 4.24999 10.794 4.3412 10.9764 4.52362C11.1588 4.70595 11.25 4.91603 11.25 5.15387V5.96149C11.25 6.01341 11.2445 6.06949 11.2336 6.12974C11.2227 6.18999 11.2064 6.24612 11.1846 6.29812L9.75188 9.67887C9.68013 9.83912 9.55996 9.97437 9.39138 10.0846C9.22279 10.1949 9.04746 10.25 8.86538 10.25H4.81725C4.56792 10.25 4.35496 10.1617 4.17838 9.98512C4.00179 9.80845 3.9135 9.59545 3.9135 9.34612V4.62399C3.9135 4.50349 3.93817 4.38766 3.9875 4.27649C4.03683 4.16524 4.10254 4.06858 4.18462 3.98649L6.82975 1.35862C6.92917 1.26445 7.04425 1.20645 7.175 1.18462C7.30575 1.16287 7.43104 1.18241 7.55088 1.24324C7.67079 1.30416 7.75733 1.39358 7.8105 1.51149C7.86375 1.62949 7.87433 1.75483 7.84225 1.88749L7.30375 4.24999H10.3461ZM2.15387 10.25C1.90454 10.25 1.69154 10.1617 1.51488 9.98512C1.33829 9.80845 1.25 9.59545 1.25 9.34612V5.15387C1.25 4.90453 1.33829 4.69153 1.51488 4.51487C1.69154 4.33828 1.90454 4.24999 2.15387 4.24999H2.25963C2.50896 4.24999 2.72196 4.33828 2.89863 4.51487C3.07521 4.69153 3.1635 4.90453 3.1635 5.15387V9.35099C3.1635 9.60033 3.07521 9.81249 2.89863 9.98749C2.72196 10.1625 2.50896 10.25 2.25963 10.25H2.15387Z" fill="#A0A0A0"/>
</g>
</svg>
