<svg width="28" height="28" viewBox="0 0 28 28" fill="none" xmlns="http://www.w3.org/2000/svg">
<mask id="mask0_52_196" style="mask-type:alpha" maskUnits="userSpaceOnUse" x="0" y="0" width="28" height="28">
<rect width="28" height="28" fill="#D9D9D9"/>
</mask>
<g mask="url(#mask0_52_196)">
<path d="M11.0833 18.6667C8.96389 18.6667 7.17014 17.9326 5.70208 16.4646C4.23403 14.9965 3.5 13.2028 3.5 11.0833C3.5 8.96389 4.23403 7.17014 5.70208 5.70208C7.17014 4.23403 8.96389 3.5 11.0833 3.5C13.2028 3.5 14.9965 4.23403 16.4646 5.70208C17.9326 7.17014 18.6667 8.96389 18.6667 11.0833C18.6667 11.9389 18.5306 12.7458 18.2583 13.5042C17.9861 14.2625 17.6167 14.9333 17.15 15.5167L23.6833 22.05C23.8972 22.2639 24.0042 22.5361 24.0042 22.8667C24.0042 23.1972 23.8972 23.4694 23.6833 23.6833C23.4694 23.8972 23.1972 24.0042 22.8667 24.0042C22.5361 24.0042 22.2639 23.8972 22.05 23.6833L15.5167 17.15C14.9333 17.6167 14.2625 17.9861 13.5042 18.2583C12.7458 18.5306 11.9389 18.6667 11.0833 18.6667ZM11.0833 16.3333C12.5417 16.3333 13.7812 15.8229 14.8021 14.8021C15.8229 13.7812 16.3333 12.5417 16.3333 11.0833C16.3333 9.625 15.8229 8.38542 14.8021 7.36458C13.7812 6.34375 12.5417 5.83333 11.0833 5.83333C9.625 5.83333 8.38542 6.34375 7.36458 7.36458C6.34375 8.38542 5.83333 9.625 5.83333 11.0833C5.83333 12.5417 6.34375 13.7812 7.36458 14.8021C8.38542 15.8229 9.625 16.3333 11.0833 16.3333Z" fill="#111111"/>
</g>
</svg>
